<svg width="204" height="204" viewBox="0 0 204 204" fill="none" xmlns="http://www.w3.org/2000/svg">
<path d="M110.919 6.2233C111.323 6.29241 111.612 6.41283 111.786 6.58454C111.961 6.74639 112.096 6.96726 112.19 7.24714L113.69 11.2016L111.605 10.845C111.329 10.7978 111.108 10.7246 110.943 10.6252C110.789 10.5177 110.64 10.3502 110.496 10.1227L107.504 5.63919L110.919 6.2233Z" fill="white"/>
<path d="M149.291 23.4107C149.078 23.5252 148.886 23.5878 148.714 23.5984C148.556 23.6058 148.392 23.5566 148.223 23.4506C148.045 23.3393 147.889 23.1539 147.757 22.8942C147.638 22.6313 147.485 22.3292 147.297 21.9879C147.109 21.6467 146.86 21.2905 146.55 20.9196C146.253 20.5455 145.841 20.1941 145.316 19.8656C144.841 19.5689 144.388 19.3686 143.958 19.2648C143.533 19.1525 143.133 19.1213 142.76 19.1712C142.396 19.2264 142.064 19.361 141.765 19.5752C141.471 19.7809 141.219 20.0533 141.007 20.3926C140.737 20.8251 140.63 21.2597 140.687 21.6964C140.753 22.1384 140.922 22.5857 141.193 23.0383C141.465 23.4909 141.804 23.9567 142.213 24.4357C142.621 24.9148 143.034 25.4145 143.451 25.9349C143.874 26.4468 144.264 26.9847 144.619 27.5486C144.979 28.104 145.242 28.6928 145.408 29.3149C145.578 29.9287 145.616 30.5768 145.519 31.2595C145.431 31.9474 145.149 32.6731 144.672 33.4363C144.153 34.2675 143.521 34.9576 142.777 35.5068C142.047 36.0528 141.237 36.425 140.346 36.6234C139.47 36.8185 138.539 36.8266 137.554 36.6477C136.575 36.4602 135.576 36.0485 134.558 35.4127C133.973 35.0471 133.434 34.6274 132.94 34.1537C132.44 33.6884 131.994 33.1855 131.601 32.645C131.216 32.1097 130.887 31.5506 130.615 30.9677C130.342 30.3847 130.142 29.7996 130.013 29.2124L132.044 28.1993C132.203 28.1335 132.374 28.1049 132.557 28.1133C132.746 28.1133 132.916 28.161 133.069 28.2564C133.281 28.3888 133.454 28.6209 133.589 28.9527C133.729 29.276 133.903 29.6496 134.109 30.0736C134.316 30.4975 134.589 30.939 134.927 31.3979C135.279 31.8536 135.773 32.2802 136.409 32.6776C137.384 33.287 138.282 33.5296 139.102 33.4054C139.928 33.2728 140.611 32.7739 141.152 31.9089C141.454 31.4255 141.577 30.9543 141.522 30.4953C141.475 30.0417 141.316 29.5885 141.045 29.136C140.779 28.6749 140.436 28.2133 140.017 27.7512C139.599 27.2891 139.179 26.809 138.759 26.3109C138.34 25.8128 137.949 25.286 137.589 24.7306C137.228 24.1752 136.968 23.5822 136.808 22.9515C136.648 22.3209 136.622 21.6446 136.731 20.9227C136.854 20.1977 137.178 19.4153 137.702 18.5757C138.121 17.9057 138.66 17.3348 139.321 16.863C139.99 16.3965 140.732 16.0763 141.548 15.9023C142.364 15.7284 143.238 15.7261 144.17 15.8956C145.102 16.065 146.051 16.4518 147.018 17.0558C148.104 17.734 148.998 18.5289 149.702 19.4404C150.406 20.3519 150.89 21.3143 151.153 22.3276L149.291 23.4107Z" fill="white"/>
<path d="M169.334 60.5485C169.449 60.7364 169.478 60.9471 169.421 61.1807L168.775 63.4362C167.387 63.252 166.109 62.7601 164.942 61.9603C163.781 61.1692 162.732 60.0051 161.795 58.468C160.957 57.0932 160.438 55.712 160.236 54.3242C160.039 52.9449 160.123 51.6118 160.486 50.3247C160.849 49.0377 161.484 47.831 162.39 46.7048C163.302 45.5872 164.445 44.6094 165.82 43.7716C167.212 42.9233 168.619 42.3699 170.043 42.1113C171.475 41.8476 172.854 41.8621 174.18 42.1547C175.511 42.4559 176.748 43.0253 177.891 43.8629C179.042 44.6953 180.032 45.7904 180.859 47.1481C181.681 48.4973 182.188 49.8281 182.379 51.1405C182.575 52.4614 182.538 53.7076 182.268 54.8791L179.965 54.7021C179.821 54.6963 179.676 54.6613 179.532 54.5971C179.392 54.5415 179.266 54.4197 179.151 54.2318C179.073 54.1038 179.027 53.9506 179.012 53.7723C179.005 53.5889 179.004 53.3848 179.007 53.1601C179.019 52.9302 179.025 52.6695 179.022 52.3779C179.02 52.0864 178.985 51.7685 178.916 51.4243C178.855 51.0748 178.744 50.6914 178.583 50.2741C178.437 49.86 178.215 49.4097 177.918 48.9229C177.413 48.0946 176.801 47.4257 176.08 46.9162C175.374 46.41 174.588 46.081 173.722 45.9292C172.865 45.7722 171.948 45.8043 170.97 46.0255C170.001 46.2414 169 46.6642 167.967 47.2939C166.925 47.9289 166.087 48.6387 165.452 49.4234C164.823 50.2167 164.385 51.0343 164.137 51.8764C163.889 52.7185 163.824 53.5722 163.941 54.4375C164.067 55.2975 164.369 56.1204 164.848 56.906C165.134 57.3756 165.418 57.7827 165.698 58.1272C165.983 58.4802 166.278 58.7809 166.581 59.0292C166.89 59.286 167.216 59.5033 167.558 59.681C167.915 59.862 168.307 60.0154 168.735 60.141C168.864 60.1796 168.978 60.2328 169.078 60.3007C169.186 60.3634 169.272 60.446 169.334 60.5485Z" fill="white"/>
<path d="M186.702 89.0883C186.747 89.8469 186.881 90.5001 187.104 91.0478C187.328 91.6055 187.615 92.0541 187.966 92.3938C188.327 92.7429 188.743 92.9936 189.213 93.1459C189.683 93.2982 190.192 93.3579 190.741 93.3252C191.839 93.2596 192.661 92.845 193.206 92.0811C193.753 91.3272 193.981 90.2066 193.892 88.7193L193.739 86.1438L186.552 86.5728L186.702 89.0883ZM175.97 100.127L175.753 96.4886C175.712 95.7999 175.952 95.2847 176.472 94.943L183.133 89.9774C183.383 89.7922 183.556 89.5916 183.653 89.3754C183.751 89.1692 183.788 88.8664 183.764 88.4671L183.662 86.7452L175.202 87.2501L174.961 83.2222L196.613 81.9302L197.007 88.5334C197.094 90.0008 197.015 91.2678 196.768 92.3344C196.532 93.4104 196.159 94.2992 195.65 95.0007C195.141 95.7123 194.512 96.2507 193.763 96.616C193.023 96.9807 192.194 97.1905 191.276 97.2453C190.547 97.2888 189.852 97.2201 189.19 97.0392C188.528 96.8683 187.921 96.594 187.367 96.2163C186.815 95.8486 186.321 95.3771 185.886 94.802C185.451 94.2369 185.096 93.5819 184.822 92.8369C184.687 93.1054 184.522 93.3557 184.325 93.5878C184.139 93.8193 183.911 94.0333 183.642 94.2296L175.97 100.127Z" fill="white"/>
<path d="M176.714 142.329C175.284 141.635 174.072 140.753 173.08 139.682C172.092 138.625 171.363 137.449 170.891 136.153C170.419 134.857 170.226 133.479 170.312 132.02C170.406 130.566 170.813 129.096 171.534 127.612C172.25 126.136 173.15 124.911 174.234 123.937C175.327 122.966 176.53 122.261 177.845 121.82C179.154 121.389 180.532 121.229 181.978 121.342C183.433 121.459 184.876 121.864 186.306 122.558C187.737 123.252 188.944 124.132 189.927 125.198C190.919 126.269 191.651 127.452 192.123 128.748C192.59 130.053 192.777 131.432 192.682 132.887C192.597 134.346 192.196 135.813 191.48 137.289C191 138.279 190.431 139.153 189.774 139.912C189.126 140.676 188.413 141.319 187.637 141.843C186.869 142.371 186.044 142.777 185.162 143.06C184.285 143.357 183.379 143.529 182.445 143.575C181.511 143.622 180.561 143.54 179.597 143.328C178.629 143.125 177.668 142.792 176.714 142.329ZM178.515 138.618C179.585 139.137 180.613 139.458 181.599 139.581C182.593 139.707 183.516 139.649 184.367 139.407C185.219 139.164 185.987 138.736 186.673 138.125C187.355 137.522 187.927 136.743 188.39 135.79C188.852 134.836 189.112 133.9 189.168 132.983C189.22 132.074 189.08 131.206 188.748 130.378C188.411 129.559 187.886 128.798 187.171 128.096C186.465 127.398 185.576 126.789 184.506 126.269C183.435 125.75 182.403 125.427 181.408 125.3C180.423 125.178 179.504 125.238 178.653 125.48C177.806 125.737 177.042 126.166 176.361 126.769C175.675 127.381 175.1 128.164 174.638 129.118C174.175 130.071 173.918 131.002 173.866 131.911C173.81 132.828 173.945 133.694 174.273 134.509C174.609 135.328 175.13 136.086 175.836 136.785C176.551 137.487 177.444 138.098 178.515 138.618Z" fill="white"/>
<path d="M147.692 164.378L145.722 161.694L155.965 154.177L168.798 171.663L165.545 174.05L154.682 159.249L147.692 164.378Z" fill="white"/>
<path d="M117.698 177.747L117.025 174.485L129.467 171.917L133.852 193.159L129.901 193.975L126.189 175.994L117.698 177.747Z" fill="white"/>
<path d="M92.097 197.738C91.6935 197.665 91.4058 197.542 91.2339 197.368C91.0601 197.205 90.9275 196.983 90.8359 196.702L89.3726 192.734L91.4539 193.11C91.7295 193.159 91.9496 193.235 92.1143 193.336C92.2674 193.445 92.4147 193.613 92.5563 193.842L95.5069 198.353L92.097 197.738Z" fill="white"/>
<path d="M53.8797 180.193C54.0938 180.08 54.2868 180.019 54.4586 180.01C54.6166 180.004 54.7799 180.055 54.9485 180.163C55.1256 180.276 55.2792 180.462 55.4093 180.723C55.5256 180.987 55.6761 181.291 55.8606 181.634C56.0451 181.977 56.2909 182.335 56.5981 182.709C56.8915 183.086 57.2995 183.441 57.8223 183.774C58.2944 184.076 58.7452 184.28 59.1746 184.388C59.5986 184.504 59.9974 184.539 60.371 184.492C60.7361 184.441 61.0691 184.309 61.3699 184.098C61.6654 183.895 61.9207 183.625 62.1358 183.287C62.41 182.857 62.5205 182.424 62.4672 181.987C62.4055 181.544 62.2411 181.095 61.9739 180.64C61.7066 180.185 61.3712 179.716 60.9674 179.233C60.5637 178.75 60.1554 178.247 59.7425 177.723C59.3243 177.207 58.9402 176.665 58.5902 176.098C58.2349 175.54 57.9774 174.948 57.8177 174.325C57.6526 173.709 57.6214 173.061 57.7241 172.379C57.8184 171.692 58.1074 170.969 58.5914 170.21C59.1183 169.384 59.7563 168.7 60.5054 168.157C61.2407 167.618 62.0544 167.254 62.9466 167.063C63.825 166.876 64.7557 166.877 65.7387 167.065C66.7164 167.262 67.7111 167.682 68.7229 168.328C69.3047 168.699 69.8404 169.123 70.33 169.602C70.825 170.071 71.2667 170.579 71.655 171.123C72.0349 171.661 72.3584 172.224 72.6255 172.809C72.8926 173.394 73.0876 173.981 73.2105 174.57L71.1709 175.564C71.0113 175.628 70.8399 175.655 70.6566 175.645C70.4679 175.644 70.2977 175.594 70.1459 175.497C69.9351 175.363 69.7639 175.129 69.6323 174.796C69.4954 174.472 69.3255 174.097 69.1226 173.671C68.9198 173.245 68.6514 172.801 68.3175 172.339C67.9697 171.88 67.4797 171.449 66.8473 171.045C65.8777 170.427 64.9821 170.176 64.1606 170.293C63.3337 170.418 62.646 170.91 62.0976 171.77C61.7911 172.251 61.6633 172.721 61.7142 173.18C61.7567 173.634 61.9116 174.089 62.1788 174.544C62.4407 175.008 62.7789 175.472 63.1933 175.938C63.6078 176.404 64.0226 176.888 64.4378 177.39C64.853 177.892 65.2383 178.423 65.5936 178.981C65.949 179.54 66.2038 180.135 66.3581 180.767C66.5124 181.4 66.5317 182.076 66.4159 182.797C66.2864 183.521 65.9554 184.3 65.4231 185.135C64.9983 185.801 64.4536 186.367 63.789 186.832C63.1159 187.293 62.3705 187.606 61.5527 187.772C60.735 187.939 59.861 187.933 58.9309 187.755C58.0007 187.577 57.0551 187.181 56.0939 186.568C55.0147 185.88 54.1273 185.077 53.4318 184.159C52.7363 183.241 52.2617 182.274 52.0081 181.258L53.8797 180.193Z" fill="white"/>
<path d="M34.1816 142.872C34.0688 142.683 34.0419 142.472 34.1008 142.239L34.7672 139.989C36.1542 140.186 37.4272 140.69 38.5863 141.501C39.7404 142.302 40.7786 143.476 41.701 145.022C42.5261 146.404 43.0331 147.79 43.2219 149.18C43.4055 150.561 43.3098 151.893 42.9346 153.177C42.5594 154.461 41.9135 155.661 40.9968 156.779C40.0749 157.888 38.9227 158.855 37.5402 159.68C36.1405 160.516 34.7278 161.056 33.3021 161.301C31.8678 161.552 30.489 161.525 29.1657 161.22C27.8373 160.906 26.6056 160.325 25.4706 159.477C24.327 158.634 23.3477 157.53 22.5329 156.164C21.7232 154.808 21.229 153.472 21.0503 152.158C20.8665 150.835 20.9149 149.59 21.1955 148.421L23.4974 148.619C23.6414 148.626 23.7854 148.663 23.9293 148.728C24.0681 148.785 24.1938 148.908 24.3066 149.097C24.3834 149.226 24.4285 149.379 24.4418 149.558C24.4465 149.741 24.4461 149.945 24.4404 150.17C24.4261 150.4 24.4186 150.66 24.418 150.952C24.4173 151.243 24.45 151.562 24.516 151.906C24.5735 152.256 24.6807 152.641 24.8375 153.06C24.9805 153.475 25.1981 153.927 25.4902 154.417C25.9873 155.25 26.5937 155.924 27.3094 156.441C28.0113 156.953 28.7943 157.29 29.6582 157.449C30.5136 157.614 31.4312 157.591 32.411 157.379C33.3821 157.172 34.3872 156.758 35.4263 156.138C36.4739 155.513 37.3185 154.811 37.96 154.032C38.5964 153.245 39.0425 152.431 39.2983 151.591C39.5541 150.752 39.6273 149.899 39.5178 149.032C39.3998 148.171 39.1051 147.346 38.6336 146.556C38.3517 146.083 38.0723 145.674 37.7953 145.327C37.5132 144.971 37.2215 144.667 36.9202 144.416C36.6138 144.157 36.2902 143.936 35.9494 143.756C35.5948 143.571 35.2042 143.414 34.7774 143.285C34.6489 143.245 34.535 143.191 34.4357 143.122C34.3278 143.058 34.2431 142.975 34.1816 142.872Z" fill="white"/>
<path d="M17.0809 114.163C17.0427 113.404 16.9146 112.75 16.6967 112.2C16.4782 111.64 16.1952 111.189 15.8475 110.846C15.4893 110.494 15.076 110.239 14.6075 110.083C14.139 109.926 13.6301 109.861 13.0808 109.889C11.9822 109.944 11.1567 110.352 10.6041 111.11C10.0511 111.859 9.81205 112.977 9.887 114.466L10.0168 117.042L17.2077 116.68L17.0809 114.163ZM27.9144 103.225L28.0977 106.865C28.1324 107.554 27.8879 108.067 27.3642 108.404L20.6574 113.307C20.4063 113.49 20.231 113.689 20.1317 113.905C20.0319 114.11 19.9921 114.412 20.0122 114.812L20.099 116.535L28.5633 116.108L28.7662 120.138L7.10368 121.229L6.77094 114.623C6.697 113.154 6.78843 111.888 7.04522 110.824C7.29153 109.75 7.67248 108.865 8.18808 108.168C8.70318 107.461 9.3372 106.929 10.0901 106.57C10.8331 106.213 11.664 106.011 12.5828 105.964C13.3119 105.928 14.0065 106.003 14.6668 106.19C15.3265 106.367 15.9314 106.647 16.4813 107.03C17.0308 107.402 17.5203 107.878 17.95 108.457C18.3792 109.027 18.7277 109.685 18.9957 110.432C19.1324 110.165 19.3001 109.916 19.4988 109.686C19.6874 109.456 19.9171 109.244 20.1877 109.051L27.9144 103.225Z" fill="white"/>
<path d="M27.5619 61.0222C28.9858 61.7296 30.1889 62.6232 31.1711 63.7029C32.1487 64.7693 32.8673 65.9525 33.3268 67.2527C33.7863 68.553 33.9665 69.9321 33.8674 71.3903C33.7594 72.8441 33.3383 74.3098 32.6042 75.7875C31.8745 77.2562 30.9631 78.4727 29.8699 79.4371C28.7678 80.3969 27.5576 81.091 26.2394 81.5192C24.9257 81.9385 23.5464 82.0852 22.1016 81.9592C20.6478 81.8288 19.2089 81.4099 17.7849 80.7025C16.361 79.9951 15.1624 79.1037 14.1892 78.0284C13.207 76.9487 12.4861 75.7587 12.0266 74.4585C11.5716 73.1493 11.3981 71.7679 11.5061 70.3142C11.6053 68.856 12.0196 67.3925 12.7493 65.9238C13.2387 64.9387 13.8156 64.0696 14.48 63.3165C15.1355 62.5591 15.8538 61.9222 16.6351 61.4059C17.4075 60.8851 18.236 60.4872 19.1208 60.2121C20.0011 59.9236 20.9085 59.7603 21.8431 59.7221C22.7777 59.6839 23.726 59.7754 24.6881 59.9965C25.6546 60.2087 26.6125 60.5506 27.5619 61.0222ZM25.7266 64.7165C24.6609 64.187 23.6359 63.8565 22.6517 63.7248C21.6585 63.5888 20.7351 63.6381 19.8816 63.8728C19.028 64.1076 18.2554 64.5277 17.5638 65.1332C16.8766 65.7298 16.2972 66.5028 15.8256 67.4521C15.354 68.4014 15.0858 69.3345 15.0211 70.2515C14.9608 71.1595 15.0928 72.029 15.4169 72.8599C15.7455 73.682 16.264 74.4476 16.9724 75.1569C17.6719 75.8617 18.5545 76.4788 19.6202 77.0082C20.6859 77.5377 21.7154 77.8704 22.7086 78.0065C23.6928 78.1381 24.6117 78.0866 25.4652 77.8518C26.3143 77.6037 27.0824 77.1813 27.7696 76.5848C28.4612 75.9792 29.0428 75.2018 29.5145 74.2525C29.9861 73.3032 30.252 72.3746 30.3123 71.4666C30.377 70.5496 30.2495 69.6823 29.9299 68.8647C29.6013 68.0427 29.0873 67.2793 28.3878 66.5745C27.6794 65.8653 26.7923 65.2459 25.7266 64.7165Z" fill="white"/>
<path d="M56.7884 39.2444L58.7337 41.9471L48.4218 49.3688L35.7514 31.7643L39.0264 29.4073L49.7515 44.309L56.7884 39.2444Z" fill="white"/>
<path d="M86.8984 26.1583L87.5414 29.4256L75.0755 31.879L70.8871 10.5972L74.8462 9.81805L78.3916 27.8325L86.8984 26.1583Z" fill="white"/>
</svg>
