<svg width="216" height="216" viewBox="0 0 216 216" fill="none" xmlns="http://www.w3.org/2000/svg">
<path d="M115.839 5.1979L113.3 5.03174L112.826 12.2703L111.024 12.1523L111.498 4.91378L108.959 4.74762L109.054 3.29872L115.934 3.749L115.839 5.1979Z" fill="#BAA898"/>
<path d="M123.366 13.3857L121.58 13.076L123.068 4.49807L124.853 4.80771L123.366 13.3857Z" fill="#BAA898"/>
<path d="M141.459 8.92287L138.823 17.2202L137.307 16.7388L138.926 11.6437C138.96 11.537 138.998 11.4232 139.041 11.3024C139.087 11.1829 139.138 11.0626 139.193 10.9416L135.39 14.688C135.182 14.8946 134.942 14.955 134.672 14.869L134.431 14.7927C134.298 14.7503 134.19 14.6822 134.106 14.5885C134.024 14.491 133.971 14.3716 133.949 14.2302L133 8.95514C132.969 9.09221 132.937 9.22485 132.905 9.35307C132.874 9.47749 132.841 9.59307 132.807 9.69981L131.189 14.7949L129.673 14.3134L132.309 6.0161L133.613 6.43032C133.686 6.45333 133.75 6.47582 133.806 6.4978C133.862 6.51978 133.908 6.54696 133.943 6.57935C133.984 6.60913 134.016 6.64853 134.038 6.69756C134.065 6.74398 134.086 6.80504 134.1 6.88075L135.015 12.0443C135.045 12.2008 135.068 12.3592 135.084 12.5197C135.104 12.6813 135.119 12.8455 135.129 13.0124C135.235 12.8781 135.341 12.7482 135.448 12.6227C135.559 12.4984 135.672 12.381 135.787 12.2706L139.492 8.59393C139.547 8.54002 139.599 8.50197 139.648 8.47977C139.698 8.45376 139.747 8.43979 139.793 8.43786C139.845 8.43334 139.898 8.43764 139.953 8.45079C140.011 8.46514 140.079 8.48443 140.155 8.50865L141.459 8.92287Z" fill="#BAA898"/>
<path d="M151.378 14.3708L150.372 16.3697L152.965 17.6758L152.353 18.8923L149.759 17.5862L148.731 19.628L152.064 21.3064L151.43 22.5658L146.478 20.0725L150.394 12.2966L155.345 14.7899L154.711 16.0492L151.378 14.3708Z" fill="#BAA898"/>
<path d="M171.929 27.1534L169.92 25.5932L165.471 31.3231L164.045 30.2156L168.493 24.4857L166.484 22.9256L167.374 21.7787L172.82 26.0064L171.929 27.1534Z" fill="#BAA898"/>
<path d="M177.631 35.6372C177.835 35.8456 178.038 36.0002 178.237 36.1011C178.44 36.1992 178.635 36.2519 178.821 36.2593C179.011 36.2639 179.191 36.2274 179.361 36.1498C179.532 36.0722 179.691 35.9606 179.84 35.8149C180.134 35.5263 180.265 35.2037 180.235 34.847C180.207 34.4932 179.997 34.1164 179.605 33.7167L178.949 33.0487L176.984 34.9777L177.631 35.6372ZM177.314 41.8584L176.175 40.6979C175.962 40.4809 175.89 40.2427 175.961 39.9831L176.706 36.931C176.733 36.8097 176.734 36.7022 176.71 36.6086C176.688 36.5179 176.621 36.4154 176.509 36.3012L176.08 35.8644L173.712 38.1885L172.451 36.9038L178.665 30.8058L180.581 32.7585C181.007 33.1925 181.326 33.6084 181.537 34.0064C181.751 34.4016 181.875 34.7761 181.908 35.13C181.942 35.4839 181.892 35.8158 181.759 36.1257C181.629 36.4327 181.431 36.7166 181.165 36.9771C180.96 37.1789 180.735 37.3408 180.49 37.463C180.252 37.5852 180.002 37.6649 179.741 37.702C179.481 37.7392 179.212 37.7338 178.935 37.686C178.659 37.6381 178.382 37.545 178.106 37.4066C178.142 37.5343 178.162 37.666 178.166 37.8018C178.174 37.9348 178.161 38.0733 178.128 38.2172L177.314 41.8584Z" fill="#BAA898"/>
<path d="M187.124 48.3256L188.709 45.9862C188.788 45.8581 188.885 45.7124 188.998 45.5494C189.114 45.3895 189.243 45.2217 189.387 45.0461C189.174 45.134 188.971 45.2091 188.778 45.2716C188.591 45.3349 188.425 45.3855 188.279 45.4236L185.589 46.2444L187.124 48.3256ZM186.258 52.7216L185.428 51.5965C185.336 51.4709 185.289 51.3466 185.287 51.2233C185.292 51.101 185.326 50.986 185.391 50.8786L186.38 49.4188L184.321 46.6278L182.635 47.1411C182.53 47.1683 182.415 47.1665 182.288 47.1359C182.164 47.1029 182.057 47.0253 181.967 46.9029L181.13 45.7682L190.156 43.3386L191.249 44.821L186.258 52.7216Z" fill="#BAA898"/>
<path d="M194.406 61.8956C194.453 61.9838 194.461 62.0749 194.43 62.1688L194.094 63.1577C193.533 63.0585 193.027 62.8325 192.575 62.4798C192.126 62.1306 191.731 61.6385 191.392 61.0036C191.084 60.4286 190.905 59.8599 190.854 59.2976C190.806 58.7334 190.871 58.1975 191.049 57.6898C191.226 57.1821 191.509 56.7136 191.896 56.2842C192.283 55.8549 192.761 55.4884 193.329 55.1848C193.71 54.9811 194.093 54.8284 194.479 54.7266C194.87 54.6265 195.252 54.5784 195.626 54.5825C196.001 54.5866 196.363 54.6376 196.715 54.7353C197.069 54.8366 197.402 54.985 197.715 55.1804C198.032 55.374 198.321 55.614 198.583 55.9003C198.85 56.1883 199.085 56.521 199.287 56.8984C199.438 57.1806 199.555 57.4601 199.64 57.737C199.726 58.0174 199.784 58.2905 199.812 58.5564C199.841 58.8222 199.841 59.0808 199.812 59.3321C199.789 59.5851 199.742 59.8253 199.673 60.0526L198.658 59.9086C198.595 59.9013 198.532 59.8825 198.471 59.8519C198.409 59.8214 198.356 59.7638 198.31 59.6791C198.265 59.5945 198.249 59.492 198.262 59.3718C198.276 59.2551 198.287 59.1134 198.293 58.9468C198.301 58.7837 198.284 58.5909 198.242 58.3684C198.202 58.1494 198.105 57.8952 197.95 57.606C197.779 57.285 197.563 57.0215 197.303 56.8157C197.044 56.6098 196.751 56.4693 196.425 56.3941C196.104 56.3205 195.755 56.3166 195.378 56.3824C195 56.4482 194.607 56.5905 194.198 56.8092C193.785 57.0299 193.446 57.2834 193.182 57.5698C192.923 57.8578 192.736 58.16 192.619 58.4763C192.504 58.7962 192.459 59.1196 192.484 59.4464C192.515 59.7748 192.611 60.0907 192.773 60.3941C192.87 60.574 192.965 60.7315 193.06 60.8667C193.157 61.0055 193.26 61.1252 193.368 61.2261C193.478 61.3304 193.596 61.4194 193.721 61.4929C193.849 61.5699 193.994 61.6376 194.156 61.6958C194.209 61.7176 194.257 61.744 194.301 61.775C194.345 61.806 194.38 61.8462 194.406 61.8956Z" fill="#BAA898"/>
<path d="M201.618 70.1438L201.737 70.4771C201.837 70.7558 201.996 70.9263 202.214 70.9886L205.729 72.0692C205.896 72.1199 206.025 72.1949 206.116 72.2941C206.21 72.392 206.288 72.5257 206.348 72.6952L206.874 74.164L202.579 72.757C202.3 72.6657 202.081 72.5465 201.922 72.3994C201.916 72.5501 201.889 72.6936 201.84 72.8301C201.795 72.9652 201.72 73.1066 201.616 73.2544L198.75 77.3008L198.21 75.7925C198.175 75.6946 198.152 75.6071 198.142 75.5302C198.132 75.457 198.132 75.3893 198.139 75.3272C198.147 75.265 198.162 75.2084 198.187 75.1572C198.215 75.1047 198.249 75.0521 198.289 74.9993L200.484 71.8369C200.56 71.7289 200.602 71.6186 200.608 71.5059C200.618 71.3918 200.591 71.2462 200.528 71.0692L200.358 70.5947L196.805 71.8663L196.198 70.1716L204.395 67.2381L205.002 68.9328L201.618 70.1438Z" fill="#BAA898"/>
<path d="M201.014 85.1321L200.604 83.367L209.085 81.3995L209.495 83.1646L201.014 85.1321Z" fill="#BAA898"/>
<path d="M211.949 97.6697L203.294 98.6021L203.194 97.6775C203.179 97.5383 203.188 97.4186 203.222 97.3184C203.259 97.2178 203.329 97.1158 203.43 97.0123L208.454 92.1081C208.316 92.1351 208.179 92.1578 208.045 92.1763C207.91 92.1989 207.785 92.2163 207.67 92.2287L202.665 92.7679L202.495 91.187L211.151 90.2546L211.252 91.1972C211.26 91.2728 211.263 91.3368 211.261 91.3894C211.263 91.4455 211.254 91.4967 211.235 91.543C211.22 91.5889 211.197 91.6337 211.165 91.6773C211.134 91.7209 211.091 91.7698 211.036 91.8239L205.992 96.7605C206.141 96.7284 206.285 96.7008 206.423 96.6778C206.566 96.6545 206.701 96.6359 206.828 96.6222L211.779 96.0889L211.949 97.6697Z" fill="#BAA898"/>
<path d="M208.146 110.966L207.998 113.951L204.408 113.773C204.106 113.313 203.892 112.828 203.765 112.317C203.642 111.811 203.595 111.278 203.622 110.718C203.658 110.003 203.8 109.361 204.048 108.793C204.3 108.225 204.635 107.745 205.051 107.353C205.466 106.961 205.952 106.667 206.506 106.47C207.06 106.273 207.659 106.191 208.303 106.222C208.954 106.255 209.546 106.39 210.079 106.629C210.611 106.871 211.063 107.2 211.435 107.615C211.807 108.03 212.089 108.523 212.281 109.093C212.473 109.667 212.552 110.302 212.517 110.997C212.5 111.356 212.453 111.691 212.378 111.999C212.306 112.308 212.212 112.592 212.095 112.85C211.982 113.109 211.85 113.345 211.7 113.558C211.549 113.77 211.385 113.962 211.209 114.134L210.431 113.573C210.307 113.487 210.235 113.379 210.213 113.25C210.191 113.12 210.23 112.982 210.33 112.835C210.425 112.695 210.51 112.557 210.585 112.421C210.663 112.289 210.732 112.146 210.792 111.993C210.852 111.839 210.9 111.672 210.937 111.489C210.974 111.307 210.999 111.096 211.01 110.856C211.03 110.453 210.979 110.084 210.855 109.749C210.731 109.415 210.548 109.125 210.303 108.881C210.059 108.64 209.76 108.449 209.407 108.308C209.053 108.166 208.655 108.084 208.211 108.062C207.732 108.038 207.299 108.085 206.913 108.202C206.531 108.319 206.203 108.495 205.931 108.73C205.66 108.965 205.447 109.251 205.294 109.588C205.141 109.928 205.054 110.311 205.033 110.734C205.019 111.022 205.034 111.279 205.079 111.505C205.128 111.736 205.197 111.962 205.286 112.182L206.748 112.255L206.797 111.272C206.802 111.156 206.837 111.066 206.9 111.001C206.967 110.94 207.049 110.912 207.145 110.917L208.146 110.966Z" fill="#BAA898"/>
<path d="M205.279 130.297C205.159 129.978 204.999 129.73 204.799 129.551C204.599 129.372 204.369 129.247 204.111 129.177C203.91 129.122 203.72 129.105 203.54 129.127C203.364 129.149 203.202 129.203 203.055 129.287C202.911 129.372 202.787 129.486 202.682 129.627C202.577 129.768 202.5 129.93 202.451 130.111C202.369 130.412 202.335 130.702 202.351 130.98C202.369 131.262 202.431 131.532 202.535 131.788L205.279 130.297ZM199.897 134.919L200.325 133.35C200.347 133.269 200.37 133.197 200.396 133.133C200.421 133.074 200.452 133.02 200.49 132.972C200.528 132.925 200.573 132.881 200.625 132.841C200.677 132.802 200.74 132.763 200.812 132.724L201.439 132.385C201.259 131.938 201.152 131.47 201.12 130.98C201.086 130.494 201.139 129.996 201.278 129.487C201.367 129.159 201.511 128.852 201.709 128.566C201.911 128.281 202.15 128.043 202.425 127.853C202.705 127.664 203.014 127.535 203.352 127.465C203.694 127.397 204.052 127.413 204.427 127.515C204.685 127.586 204.919 127.693 205.129 127.837C205.338 127.981 205.521 128.154 205.678 128.354C205.834 128.558 205.966 128.782 206.073 129.027C206.179 129.276 206.257 129.538 206.307 129.812C206.646 129.693 206.963 129.626 207.257 129.611C207.554 129.601 207.836 129.632 208.102 129.704C208.396 129.784 208.659 129.914 208.892 130.094C209.129 130.274 209.318 130.494 209.459 130.752C209.604 131.011 209.694 131.305 209.728 131.634C209.762 131.966 209.727 132.324 209.623 132.706C209.526 133.061 209.386 133.363 209.202 133.611C209.022 133.86 208.817 134.057 208.587 134.202C208.357 134.347 208.113 134.442 207.856 134.488C207.598 134.538 207.342 134.541 207.089 134.497L207.158 133.421C207.171 133.221 207.286 133.105 207.502 133.073C207.724 133.051 207.917 132.987 208.082 132.883C208.25 132.784 208.366 132.616 208.43 132.381C208.47 132.234 208.479 132.096 208.457 131.965C208.438 131.836 208.395 131.718 208.329 131.613C208.261 131.512 208.173 131.424 208.065 131.348C207.96 131.278 207.841 131.225 207.71 131.19C207.602 131.16 207.495 131.141 207.39 131.133C207.283 131.129 207.171 131.136 207.055 131.154C206.94 131.177 206.818 131.214 206.688 131.266C206.558 131.317 206.416 131.384 206.261 131.466L203.415 133.011C203.617 133.194 203.839 133.356 204.078 133.496C204.322 133.637 204.577 133.756 204.845 133.854C204.942 133.893 205.012 133.947 205.056 134.017C205.098 134.091 205.106 134.176 205.079 134.273L204.807 135.274C204.274 135.129 203.791 134.916 203.357 134.637C202.922 134.361 202.542 134.035 202.218 133.661L199.897 134.919Z" fill="#BAA898"/>
<path d="M198.818 159.579L191.175 155.409L191.937 154.013L196.63 156.574C196.728 156.628 196.832 156.687 196.943 156.752C197.051 156.82 197.16 156.893 197.268 156.97L194.315 152.523C194.152 152.279 194.139 152.032 194.275 151.783L194.396 151.561C194.463 151.439 194.55 151.345 194.658 151.281C194.769 151.219 194.897 151.19 195.04 151.195L200.399 151.269C200.27 151.213 200.146 151.156 200.026 151.1C199.91 151.046 199.803 150.992 199.705 150.938L195.012 148.378L195.773 146.982L203.416 151.152L202.761 152.353C202.724 152.419 202.69 152.478 202.658 152.529C202.625 152.579 202.59 152.619 202.551 152.648C202.514 152.683 202.469 152.706 202.417 152.719C202.366 152.737 202.303 152.745 202.226 152.744L196.982 152.658C196.823 152.658 196.663 152.65 196.502 152.636C196.34 152.625 196.176 152.608 196.01 152.586C196.122 152.715 196.229 152.844 196.332 152.973C196.433 153.106 196.526 153.239 196.613 153.373L199.516 157.711C199.558 157.775 199.586 157.833 199.598 157.886C199.614 157.94 199.618 157.99 199.611 158.037C199.606 158.088 199.592 158.14 199.568 158.191C199.543 158.245 199.511 158.308 199.473 158.378L198.818 159.579Z" fill="#BAA898"/>
<path d="M186.696 168.093L189.373 168.997C189.518 169.04 189.684 169.094 189.871 169.159C190.056 169.228 190.252 169.309 190.46 169.4C190.318 169.218 190.192 169.043 190.08 168.874C189.969 168.71 189.876 168.563 189.801 168.433L188.293 166.059L186.696 168.093ZM182.228 168.431L183.091 167.331C183.188 167.208 183.295 167.13 183.413 167.096C183.532 167.067 183.652 167.07 183.773 167.104L185.444 167.667L187.585 164.939L186.641 163.451C186.587 163.357 186.558 163.246 186.553 163.115C186.552 162.987 186.599 162.863 186.692 162.744L187.563 161.634L192.311 169.686L191.173 171.135L182.228 168.431Z" fill="#BAA898"/>
<path d="M178.686 184.832L172.728 178.484L173.406 177.847C173.508 177.752 173.609 177.687 173.709 177.653C173.812 177.623 173.935 177.617 174.079 177.635L181.02 178.692C180.915 178.598 180.815 178.503 180.719 178.406C180.62 178.312 180.531 178.223 180.451 178.139L177.006 174.468L178.166 173.38L184.124 179.728L183.433 180.377C183.377 180.429 183.328 180.47 183.284 180.5C183.241 180.535 183.195 180.559 183.146 180.572C183.1 180.587 183.051 180.595 182.997 180.597C182.943 180.598 182.878 180.593 182.802 180.582L175.823 179.529C175.939 179.629 176.047 179.727 176.149 179.823C176.253 179.923 176.349 180.019 176.437 180.113L179.845 183.744L178.686 184.832Z" fill="#BAA898"/>
<path d="M165.009 188.947L167.297 190.605C167.422 190.689 167.565 190.79 167.724 190.908C167.88 191.029 168.044 191.164 168.215 191.313C168.134 191.097 168.065 190.892 168.009 190.697C167.952 190.509 167.906 190.341 167.873 190.194L167.138 187.479L165.009 188.947ZM160.643 187.941L161.794 187.148C161.923 187.059 162.048 187.016 162.172 187.019C162.294 187.027 162.408 187.065 162.513 187.133L163.94 188.168L166.796 186.199L166.336 184.497C166.313 184.392 166.318 184.277 166.353 184.151C166.39 184.028 166.471 183.924 166.596 183.838L167.757 183.037L169.897 192.136L168.38 193.181L160.643 187.941Z" fill="#BAA898"/>
<path d="M153.718 197.116L151.034 198.428L149.455 195.199C149.712 194.713 150.033 194.291 150.419 193.933C150.804 193.581 151.247 193.282 151.75 193.036C152.394 192.721 153.024 192.535 153.642 192.478C154.261 192.425 154.843 192.486 155.387 192.66C155.931 192.835 156.423 193.118 156.863 193.508C157.303 193.898 157.665 194.383 157.948 194.962C158.234 195.547 158.402 196.131 158.45 196.713C158.495 197.297 158.425 197.851 158.242 198.377C158.058 198.904 157.763 199.388 157.357 199.832C156.947 200.277 156.429 200.653 155.804 200.958C155.48 201.117 155.165 201.237 154.859 201.32C154.554 201.407 154.26 201.462 153.977 201.484C153.696 201.51 153.426 201.509 153.167 201.48C152.907 201.45 152.66 201.4 152.425 201.328L152.541 200.376C152.556 200.226 152.615 200.111 152.718 200.029C152.821 199.948 152.961 199.915 153.138 199.931C153.306 199.947 153.467 199.955 153.623 199.954C153.777 199.959 153.935 199.951 154.098 199.929C154.261 199.907 154.431 199.868 154.609 199.813C154.787 199.757 154.983 199.676 155.199 199.571C155.562 199.394 155.86 199.17 156.093 198.9C156.326 198.63 156.491 198.33 156.587 197.998C156.679 197.668 156.702 197.314 156.655 196.936C156.609 196.558 156.488 196.169 156.293 195.77C156.082 195.339 155.832 194.983 155.543 194.701C155.256 194.423 154.944 194.222 154.607 194.097C154.27 193.972 153.917 193.924 153.548 193.953C153.176 193.984 152.799 194.092 152.418 194.279C152.159 194.405 151.942 194.543 151.765 194.691C151.587 194.845 151.422 195.015 151.272 195.2L151.915 196.515L152.799 196.083C152.903 196.032 152.999 196.018 153.087 196.042C153.172 196.072 153.236 196.129 153.278 196.216L153.718 197.116Z" fill="#BAA898"/>
<path d="M142.685 205.045L141.999 202.915L139.235 203.805L138.817 202.509L141.581 201.618L140.88 199.442L137.328 200.587L136.895 199.245L142.172 197.545L144.842 205.831L139.566 207.531L139.133 206.189L142.685 205.045Z" fill="#BAA898"/>
<path d="M122.09 211.466L120.765 202.861L122.337 202.619L123.15 207.903C123.167 208.014 123.183 208.133 123.199 208.26C123.21 208.387 123.218 208.518 123.223 208.651L124.965 203.605C125.06 203.327 125.248 203.167 125.528 203.123L125.778 203.085C125.916 203.064 126.043 203.077 126.16 203.123C126.277 203.174 126.377 203.258 126.46 203.375L129.654 207.679C129.62 207.542 129.59 207.409 129.562 207.28C129.534 207.155 129.512 207.037 129.495 206.926L128.682 201.642L130.253 201.401L131.578 210.005L130.226 210.213C130.151 210.225 130.083 210.233 130.023 210.238C129.963 210.244 129.91 210.24 129.864 210.227C129.814 210.218 129.768 210.197 129.726 210.163C129.681 210.133 129.636 210.088 129.59 210.026L126.476 205.807C126.379 205.68 126.288 205.548 126.202 205.412C126.113 205.276 126.026 205.135 125.943 204.99C125.908 205.157 125.871 205.321 125.831 205.481C125.787 205.641 125.738 205.797 125.684 205.947L123.998 210.887C123.973 210.959 123.943 211.017 123.909 211.058C123.875 211.104 123.838 211.138 123.797 211.16C123.753 211.188 123.703 211.207 123.648 211.22C123.59 211.233 123.521 211.245 123.442 211.258L122.09 211.466Z" fill="#BAA898"/>
<path d="M110.697 211.001L110.708 208.763L107.804 208.749L107.811 207.387L110.715 207.401L110.726 205.115L106.994 205.097L107.001 203.687L112.545 203.713L112.502 212.419L106.958 212.393L106.965 210.983L110.697 211.001Z" fill="#BAA898"/>
<path d="M91.3524 211.083L92.6413 202.473L93.561 202.611C93.6995 202.632 93.8129 202.671 93.9013 202.729C93.9892 202.79 94.0703 202.883 94.1447 203.008L97.6177 209.109C97.6266 208.969 97.6391 208.831 97.6553 208.696C97.6675 208.56 97.6822 208.435 97.6994 208.32L98.4446 203.342L100.017 203.577L98.7283 212.187L97.7907 212.047C97.7155 212.036 97.6528 212.022 97.6026 212.007C97.5478 211.994 97.5004 211.973 97.4605 211.943C97.4199 211.917 97.3825 211.883 97.3483 211.841C97.3141 211.8 97.2777 211.746 97.2391 211.679L93.7399 205.55C93.7332 205.702 93.7235 205.849 93.7107 205.988C93.6973 206.132 93.6811 206.267 93.6621 206.394L92.9249 211.319L91.3524 211.083Z" fill="#BAA898"/>
<path d="M77.0499 206.226L79.4846 206.963L81.5885 200.021L83.3169 200.545L81.213 207.487L83.6476 208.225L83.2265 209.615L76.6288 207.615L77.0499 206.226Z" fill="#BAA898"/>
</svg>
