<svg width="167" height="167" viewBox="0 0 167 167" fill="none" xmlns="http://www.w3.org/2000/svg">
<path d="M4.48089 82.2608C4.57321 82.3163 4.64153 82.3739 4.68587 82.4337C4.72619 82.4894 4.74661 82.5633 4.74713 82.6553C4.74762 82.7433 4.71817 82.8395 4.65876 82.9438C4.59532 83.0442 4.52799 83.1626 4.45676 83.299C4.38553 83.4354 4.32041 83.5917 4.26141 83.7681C4.19841 83.9444 4.16757 84.1506 4.16891 84.3866C4.17126 84.8026 4.26702 85.1141 4.4562 85.321C4.64137 85.528 4.88395 85.6306 5.18395 85.6289C5.37595 85.6278 5.53563 85.5709 5.66299 85.4582C5.78633 85.3415 5.89348 85.1909 5.98444 85.0064C6.07538 84.8178 6.15618 84.6054 6.22684 84.369C6.2975 84.1326 6.37613 83.8901 6.46273 83.6416C6.54533 83.3932 6.64396 83.1506 6.75862 82.9139C6.87328 82.6773 7.01809 82.4665 7.19305 82.2815C7.36798 82.0925 7.58313 81.9413 7.8385 81.8278C8.08984 81.7104 8.3975 81.6507 8.7615 81.6486C9.15749 81.6464 9.52988 81.7143 9.87867 81.8523C10.2234 81.9863 10.5265 82.1826 10.788 82.4412C11.0455 82.6997 11.2493 83.0206 11.3995 83.4037C11.5496 83.7829 11.6261 84.2144 11.6288 84.6984C11.6304 84.9744 11.6039 85.2506 11.5495 85.5269C11.495 85.7992 11.4185 86.0636 11.32 86.3202C11.2214 86.5728 11.1027 86.8114 10.964 87.0362C10.8253 87.261 10.6704 87.4579 10.4993 87.6269L9.64436 87.1037C9.58011 87.0601 9.52779 87.0024 9.48738 86.9306C9.44297 86.8588 9.42054 86.783 9.42009 86.703C9.41948 86.595 9.45883 86.4807 9.53815 86.3603C9.61747 86.2398 9.70469 86.1013 9.79981 85.9448C9.89493 85.7883 9.98191 85.6078 10.0608 85.4033C10.1396 85.1949 10.1782 84.9466 10.1765 84.6586C10.1742 84.2387 10.0763 83.9152 9.88305 83.6883C9.68974 83.4574 9.40309 83.343 9.0231 83.3451C8.8031 83.3464 8.62543 83.4054 8.49009 83.5222C8.35472 83.6349 8.24156 83.7836 8.1506 83.9681C8.05965 84.1526 7.98283 84.363 7.92017 84.5994C7.85351 84.8358 7.78088 85.0782 7.70228 85.3266C7.62368 85.5751 7.52905 85.8176 7.41839 86.0543C7.30773 86.2909 7.16092 86.5017 6.97796 86.6868C6.795 86.8718 6.56786 87.0231 6.29652 87.1406C6.02515 87.2542 5.68748 87.3121 5.28348 87.3144C4.95949 87.3162 4.64513 87.254 4.34041 87.1277C4.03569 87.0014 3.76463 86.8149 3.52723 86.5683C3.28984 86.3216 3.09812 86.0187 2.95209 85.6595C2.80603 85.2963 2.73168 84.8808 2.72903 84.4128C2.72607 83.8888 2.80533 83.4043 2.96682 82.9594C3.12428 82.5105 3.34614 82.1312 3.63239 81.8216L4.48089 82.2608Z" fill="#EEE0CB"/>
<path d="M8.36245 69.1993C8.99246 69.2865 9.5621 69.4743 10.0714 69.7627C10.5812 70.0473 11.0054 70.4108 11.344 70.8533C11.6831 71.2919 11.9281 71.7982 12.0789 72.3723C12.2257 72.9458 12.2533 73.5634 12.1618 74.2251C12.0703 74.8869 11.8761 75.4738 11.5792 75.9859C11.2783 76.4975 10.9048 76.9204 10.4589 77.2544C10.0129 77.5885 9.50568 77.8252 8.93722 77.9647C8.36931 78.1002 7.77035 78.1244 7.14035 78.0373C6.51034 77.9501 5.9424 77.7646 5.43653 77.4806C4.92725 77.1921 4.50332 76.8266 4.16474 76.3841C3.82617 75.9415 3.58347 75.4335 3.43665 74.86C3.28586 74.2859 3.25621 73.668 3.34772 73.0063C3.43922 72.3446 3.63542 71.758 3.93634 71.2464C4.23329 70.7342 4.60645 70.3134 5.05583 69.9838C5.50179 69.6497 6.00873 69.415 6.57664 69.2795C7.14114 69.1395 7.73641 69.1128 8.36245 69.1993ZM8.11014 71.024C7.65844 70.9615 7.24606 70.9651 6.87302 71.0346C6.49601 71.1036 6.16708 71.2338 5.88623 71.4251C5.60196 71.612 5.37226 71.8568 5.19712 72.1597C5.01857 72.458 4.90135 72.8093 4.84546 73.2134C4.78958 73.6176 4.8068 73.9895 4.89714 74.329C4.98352 74.6681 5.13788 74.968 5.36024 75.2289C5.57918 75.4854 5.86072 75.6979 6.20485 75.8667C6.54502 76.0348 6.94096 76.1502 7.39266 76.2126C7.84832 76.2756 8.26466 76.2726 8.64166 76.2036C9.01471 76.1341 9.34138 76.0056 9.62169 75.8182C9.90254 75.6269 10.1325 75.3801 10.3116 75.0777C10.4868 74.7749 10.6023 74.4214 10.6582 74.0172C10.714 73.6131 10.6985 73.2435 10.6116 72.9084C10.5213 72.5688 10.3666 72.2708 10.1477 72.0144C9.92929 71.754 9.65 71.5398 9.30983 71.3716C8.9657 71.2029 8.5658 71.087 8.11014 71.024Z" fill="#EEE0CB"/>
<path d="M13.4361 60.9912L14.8431 61.3957L13.4155 66.3606L5.04849 63.9547L5.54591 62.2248L12.5059 64.2261L13.4361 60.9912Z" fill="#EEE0CB"/>
<path d="M9.85371 53.7068L11.9114 54.5869L13.0533 51.9168L14.3056 52.4524L13.1637 55.1224L15.2656 56.0213L16.7331 52.59L18.0295 53.1444L15.8494 58.2418L7.84477 54.8184L10.0248 49.721L11.3212 50.2755L9.85371 53.7068Z" fill="#EEE0CB"/>
<path d="M16.1692 45.5004L16.352 45.1972C16.5049 44.9438 16.5366 44.713 16.4472 44.5049L15.0615 41.0979C14.9953 40.9366 14.972 40.7894 14.9915 40.6563C15.0076 40.5212 15.0621 40.3766 15.155 40.2225L15.9606 38.8866L17.5863 43.1039C17.692 43.3779 17.7381 43.6229 17.7246 43.8389C17.8449 43.748 17.9733 43.6783 18.1099 43.6299C18.2431 43.5794 18.4 43.5478 18.5804 43.5352L23.5275 43.1974L22.7003 44.5692C22.6465 44.6583 22.5932 44.7312 22.5403 44.7881C22.4894 44.8415 22.4375 44.8849 22.3846 44.9184C22.3317 44.9519 22.2778 44.9754 22.2229 44.989C22.1646 45.0006 22.1021 45.0073 22.0356 45.0092L18.1978 45.3083C18.0661 45.3177 17.9545 45.3555 17.8631 45.4218C17.7683 45.4861 17.6724 45.5987 17.5753 45.7597L17.315 46.1913L20.5469 48.1402L19.6173 49.6816L12.162 45.1859L13.0915 43.6444L16.1692 45.5004Z" fill="#EEE0CB"/>
<path d="M23.4415 31.4095L21.8403 33.3864L27.4772 37.9521L26.3405 39.3555L20.7036 34.7898L19.1024 36.7667L17.974 35.8528L22.3131 30.4956L23.4415 31.4095Z" fill="#EEE0CB"/>
<path d="M30.0614 28.3007C30.274 28.1005 30.4328 27.9015 30.5377 27.7038C30.6399 27.5031 30.6967 27.3095 30.7079 27.1231C30.7164 26.9338 30.6836 26.7531 30.6095 26.5811C30.5355 26.4091 30.4271 26.2474 30.2845 26.096C30.002 25.7961 29.6822 25.6577 29.3249 25.681C28.9706 25.7015 28.5896 25.9037 28.182 26.2877L27.5006 26.9294L29.3888 28.9342L30.0614 28.3007ZM36.2748 28.7457L35.0912 29.8606C34.8699 30.069 34.6302 30.1354 34.3721 30.0597L31.336 29.2515C31.2152 29.2224 31.1078 29.2192 31.0137 29.2418C30.9226 29.2617 30.8188 29.3265 30.7023 29.4362L30.2568 29.8558L32.5317 32.2712L31.2213 33.5053L25.2523 27.1677L27.244 25.2918C27.6866 24.875 28.1091 24.5651 28.5113 24.362C28.9108 24.1561 29.2878 24.0401 29.6423 24.0139C29.9968 23.9877 30.3276 24.0443 30.6347 24.1837C30.939 24.3202 31.2187 24.5238 31.4738 24.7946C31.6712 25.0042 31.8285 25.2325 31.9456 25.4794C32.0629 25.7206 32.1374 25.9718 32.1692 26.2331C32.201 26.4944 32.1901 26.7629 32.1366 27.0386C32.0831 27.3143 31.9843 27.5886 31.8403 27.8616C31.9686 27.8287 32.1007 27.8114 32.2366 27.8098C32.3697 27.8053 32.5079 27.8208 32.6512 27.8562L36.2748 28.7457Z" fill="#EEE0CB"/>
<path d="M40.51 21.3297L38.2068 19.6928C38.0804 19.6106 37.937 19.5109 37.7764 19.394C37.6192 19.2748 37.4544 19.1413 37.282 18.9936C37.3651 19.209 37.4357 19.4136 37.4938 19.6075C37.5529 19.7958 37.5998 19.9633 37.6346 20.11L38.395 22.8176L40.51 21.3297ZM44.8855 22.2937L43.7421 23.098C43.6145 23.1878 43.4891 23.232 43.3659 23.2307C43.2436 23.2237 43.1295 23.1866 43.0235 23.1194L41.5863 22.0984L38.7499 24.0938L39.2253 25.7915C39.2501 25.8963 39.2458 26.0118 39.2123 26.138C39.1765 26.261 39.0965 26.3662 38.9722 26.4537L37.819 27.2649L35.5922 18.187L37.0987 17.1271L44.8855 22.2937Z" fill="#EEE0CB"/>
</svg>
